<?xml version="1.0" encoding="UTF-8"?>
<svg id="_レイヤー_2" data-name="レイヤー 2" xmlns="http://www.w3.org/2000/svg" viewBox="0 0 90 57.54">
  <g id="img">
    <g>
      <path d="M1.79,25.35h.79l2.02,3.39v-3.39h.52v4.1h-.73l-2.08-3.48v3.48h-.52v-4.1Z"/>
      <path d="M6.23,25.36h.64v.59h-.64s0-.59,0-.59ZM6.29,26.6h.53v2.85h-.53v-2.85Z"/>
      <path d="M7.97,25.35h.54v1.66c.18-.3.53-.47.93-.47.3,0,.73.11.9.45.06.11.1.25.1.67v1.78h-.55v-1.69c0-.26,0-.81-.61-.81-.4,0-.6.25-.67.38-.09.16-.09.43-.09.6v1.51h-.54v-4.09Z"/>
      <path d="M11.89,28.02c0-.89.55-1.11.89-1.11.5,0,.83.38.83,1.09,0,.86-.46,1.15-.87,1.15-.61,0-.85-.54-.85-1.12ZM11.34,28.05c0,.83.46,1.49,1.4,1.49.97,0,1.44-.69,1.44-1.53,0-.6-.26-1.49-1.4-1.49s-1.45.83-1.45,1.53Z"/>
      <path d="M15.14,26.92v-.33s.53,0,.53,0v.46c.07-.12.27-.52.92-.52.26,0,1.04.09,1.04.97v1.94h-.54v-1.81c0-.19-.02-.36-.16-.49-.13-.13-.32-.19-.5-.19-.39,0-.75.28-.75.85v1.64h-.53v-2.52Z"/>
      <path d="M20.98,25.35v2.54c0,.44.1.62.19.74.25.34.65.41.93.41,1.11,0,1.11-.87,1.11-1.16v-2.52h.55v2.52c0,.22,0,.68-.34,1.09-.4.51-1.03.57-1.32.57-.39,0-1.07-.1-1.45-.65-.12-.18-.24-.42-.24-1.03v-2.5h.56Z"/>
      <path d="M24.93,29.45h.53v-1.64c0-.57.36-.85.74-.85.18,0,.37.06.5.19.13.13.15.3.15.49v1.81h.55v-1.94c0-.88-.78-.97-1.04-.97-.64,0-.85.4-.91.52v-.46h-.54v.33s0,2.52,0,2.52Z"/>
      <path d="M28.44,25.94h.64v-.59h-.64v.59ZM28.5,29.45h.53v-2.85h-.53v2.85Z"/>
      <path d="M29.75,26.6h.6s.91,2.26.91,2.26l.89-2.26h.59s-1.25,2.85-1.25,2.85h-.54l-1.2-2.85Z"/>
      <path d="M33.8,27.74c.01-.63.43-.84.78-.84.66,0,.71.57.7.84h-1.48ZM35.83,28.12c0-.47.04-1.6-1.24-1.6-.16,0-.5.02-.77.21-.45.31-.57.78-.57,1.34,0,.9.43,1.46,1.33,1.46.57,0,.86-.24.98-.38.2-.22.23-.45.24-.6h-.53c-.05.41-.33.59-.67.59-.58,0-.83-.44-.82-1.03h2.06Z"/>
      <path d="M36.74,27.17c0-.19-.01-.4-.03-.58h.54s.01.55.01.55c.1-.4.44-.53.68-.56.16-.02.28-.02.37-.01v.52s-.07-.02-.1-.02c-.04,0-.09,0-.16,0-.63,0-.78.38-.78.86v1.52h-.54v-2.27Z"/>
      <path d="M39.34,28.6c0,.22.11.52.63.52.22,0,.38-.04.5-.18.06-.08.09-.17.09-.27,0-.28-.2-.33-.63-.42-.59-.14-1.09-.26-1.09-.85,0-.53.45-.87,1.11-.87.36,0,.86.1,1.03.44.07.16.07.29.07.41h-.55c.02-.43-.36-.46-.55-.46-.08,0-.58,0-.58.41,0,.26.25.33.4.36.79.19.96.23,1.13.39.16.15.22.35.22.53,0,.32-.18.59-.39.72-.25.15-.55.19-.85.19-.58,0-1.12-.24-1.12-.93h.56Z"/>
      <path d="M41.93,25.36h.64v.59h-.64v-.59ZM41.99,26.6h.53v2.85h-.53v-2.85Z"/>
      <path d="M43.23,26.98h.51v1.9c0,.47.23.61.72.61.2,0,.35-.02.45-.03v-.42s-.15.03-.26.03c-.38,0-.38-.24-.38-.38v-1.71h.64v-.39h-.64v-.77l-.52.17v.59h-.51v.39Z"/>
      <path d="M46.95,29.46l-.41,1.06h-.55l.43-1.09-1.19-2.84h.6l.89,2.25.91-2.25h.58s-1.27,2.87-1.27,2.87Z"/>
      <path d="M53.09,26.45c-.02-.14-.1-.71-.89-.71-.99,0-1.17,1.01-1.17,1.69,0,.77.22,1.61,1.16,1.61.25,0,.49-.07.66-.24.15-.16.18-.34.2-.44h.62c-.08.81-.83,1.14-1.53,1.14-1.45,0-1.72-1.27-1.72-2.07,0-.86.33-2.15,1.8-2.15.58,0,1.4.23,1.47,1.16h-.61Z"/>
      <path d="M54.86,28.02c0-.89.55-1.11.89-1.11.5,0,.82.38.82,1.09,0,.86-.46,1.15-.86,1.15-.6,0-.85-.54-.85-1.12ZM54.31,28.05c0,.83.46,1.49,1.4,1.49s1.44-.69,1.44-1.53c0-.6-.25-1.49-1.39-1.49s-1.45.83-1.45,1.53Z"/>
      <path d="M58.1,25.35h.53v4.09h-.53v-4.09Z"/>
      <path d="M59.79,29.45h.54v-4.09h-.54v4.09Z"/>
      <path d="M61.81,27.74c.01-.63.44-.84.78-.84.66,0,.71.57.71.84h-1.49ZM63.84,28.12c.01-.47.04-1.6-1.24-1.6-.17,0-.51.02-.78.21-.45.31-.57.78-.57,1.34,0,.9.43,1.46,1.33,1.46.58,0,.86-.24.98-.38.2-.22.23-.45.24-.6h-.53c-.05.41-.33.59-.67.59-.58,0-.83-.44-.82-1.03h2.05Z"/>
      <path d="M65.86,29c-.65,0-.79-.58-.79-1.02,0-.37.09-1.05.77-1.05.24,0,.47.1.61.25.14.15.22.35.22.71,0,.52-.08.67-.19.82-.13.17-.31.29-.62.29ZM64.68,29.67c.02.39.06.92,1.2.92.39,0,.95-.06,1.19-.51.11-.22.13-.49.13-1.18v-1.78s.02-.52.02-.52h-.52v.39c-.12-.15-.33-.43-.91-.43-.7,0-1.27.47-1.27,1.44,0,.38.08.76.33,1.05.24.3.61.35.87.35.17,0,.71,0,.94-.48,0,.77,0,1.31-.76,1.31-.51,0-.64-.24-.66-.56h-.57Z"/>
      <path d="M68.64,28.12c0,.59.23,1.03.82,1.03.35,0,.63-.18.67-.59h.53c-.02.14-.04.37-.25.6-.13.14-.41.38-.98.38-.9,0-1.32-.55-1.32-1.46,0-.56.11-1.03.56-1.34.27-.19.61-.21.78-.21,1.28,0,1.25,1.13,1.24,1.6h-2.05ZM70.14,27.74c0-.27-.05-.84-.7-.84-.35,0-.77.21-.78.84h1.48Z"/>
      <path d="M73.9,28.02c0-.89.55-1.11.89-1.11.5,0,.83.38.83,1.09,0,.86-.46,1.15-.86,1.15-.61,0-.86-.54-.86-1.12ZM73.34,28.05c0,.83.46,1.49,1.4,1.49.97,0,1.44-.69,1.44-1.53,0-.6-.26-1.49-1.4-1.49s-1.45.83-1.45,1.53Z"/>
      <path d="M78.56,25.74c-.09,0-.21-.01-.31-.01-.43,0-.43.22-.43.41v.45h.66v.39h-.66v2.47h-.53v-2.47h-.56v-.39h.56v-.32c0-.4.02-.53.12-.68.12-.18.35-.31.71-.31.16,0,.33.02.44.04v.43Z"/>
      <path d="M82.66,25.91l.75,2.01h-1.55l.8-2.01ZM80.65,29.45h.59l.44-1.07h1.9l.45,1.07h.62l-1.66-4.1h-.61l-1.73,4.1Z"/>
      <path d="M85.33,27.17c0-.19-.01-.4-.03-.58h.54v.55c.11-.4.46-.53.69-.56.16-.02.28-.02.37-.01v.52s-.06-.02-.1-.02c-.04,0-.09,0-.15,0-.63,0-.78.38-.78.86v1.52h-.54v-2.27Z"/>
      <path d="M87.19,26.58h.51v-.59l.53-.17v.77h.64v.39h-.64v1.71c0,.14,0,.38.38.38.11,0,.21-.02.26-.03v.42c-.09.02-.25.03-.44.03-.49,0-.72-.14-.72-.61v-1.9h-.51v-.39Z"/>
      <path d="M35.22.02v19.7h19.7V.02h-19.7ZM53.86,18.66h-17.59V1.08h17.59v17.58Z"/>
      <path d="M45.07,5.48c-5.02,0-9.1,1.97-9.1,4.39s4.07,4.39,9.1,4.39,9.1-1.97,9.1-4.39-4.07-4.39-9.1-4.39ZM45.07,13.21c-4.35,0-7.88-1.49-7.88-3.33s3.53-3.34,7.88-3.34,7.88,1.49,7.88,3.34-3.53,3.33-7.88,3.33Z"/>
      <path d="M45.07,5.48c-2.51,0-4.55,1.97-4.55,4.39s2.03,4.39,4.55,4.39,4.54-1.97,4.54-4.39-2.03-4.39-4.54-4.39ZM45.07,13.21c-1.84,0-3.33-1.5-3.33-3.34s1.49-3.34,3.33-3.34,3.34,1.5,3.34,3.34-1.5,3.34-3.34,3.34Z"/>
      <path d="M11.53,0h6.12l7.4,15.53V0h3.93v19.74h-5.82L15.52,3.36v16.39h-3.99V0Z"/>
      <path d="M64.85.05v12.01c0,2.16.17,4.86,4.29,4.86.68,0,2.73-.03,3.82-1.72.41-.6.63-1.37.63-3.36V.05h4.13v12.32c0,5.87-4.67,7.75-8.66,7.75-1.97,0-5.57-.44-7.43-3.41-.96-1.5-1.01-3.03-1.01-4.86V.05h4.23Z"/>
      <path d="M17.64,46.84l2.92-8.41,2.73,8.41h-5.65ZM17.92,35.07l-6.89,19.22h4.04l1.47-4.26h7.81l1.42,4.26h4.26s-6.66-19.22-6.66-19.22h-5.46Z"/>
      <path d="M41.94,43.88c0-.65-.11-2.65-.19-3.44h3.8l.08,2.64c.52-1.17,1.42-2.84,4.69-2.67v3.63c-4.09-.38-4.34,1.72-4.34,3.44v6.8h-4.04v-10.41Z"/>
      <path d="M72.97,54.1c-1.31.36-2.49.44-3.14.44-4.07,0-4.07-2.57-4.07-3.72v-7.56h-2.64v-2.67h2.64v-2.7l4.02-1.47v4.18h3.28v2.67h-3.28v6.23c.03,1.26.03,2.05,1.83,2.05.6,0,.88-.02,1.37-.08v2.65Z"/>
      <rect x=".15" y="22.97" width="89.85" height=".66"/>
      <rect y="56.88" width="89.96" height=".66"/>
    </g>
  </g>
</svg>