<?xml version="1.0" encoding="UTF-8"?><svg id="a" xmlns="http://www.w3.org/2000/svg" viewBox="0 0 512 512"><rect x=".5" y=".5" width="511" height="511" fill="#00226c"/><path d="M511,1v510H1V1h510M512,0H0v512h512V0h0Z"/><g id="b"><path d="M35.2289,238.5263h4.0363l10.3207,17.3204v-17.3204h2.6568v20.948h-3.7298l-10.6273-17.7802v17.7802h-2.6568v-20.948Z" fill="#fff"/><path d="M57.914,238.5774h3.2699v3.0145h-3.2699v-3.0145ZM58.2206,244.9129h2.7079v14.5614h-2.7079v-14.5614Z" fill="#fff"/><path d="M66.8041,238.5263h2.759v8.4814c.9197-1.5328,2.7079-2.4013,4.7516-2.4013,1.5328,0,3.7298.562,4.5983,2.2992.3066.562.5109,1.2773.5109,3.4232v9.0945h-2.8101v-8.6347c0-1.3284,0-4.1385-3.1166-4.1385-2.0437,0-3.0656,1.2773-3.4232,1.9415-.4598.8175-.4598,2.197-.4598,3.0656v7.715h-2.759v-20.8969l-.0511.0511Z" fill="#fff"/><path d="M86.8324,252.1681c0-4.5472,2.8101-5.6713,4.5472-5.6713,2.5546,0,4.2407,1.9415,4.2407,5.5691,0,4.394-2.3503,5.8756-4.4451,5.8756-3.1166,0-4.3429-2.759-4.3429-5.7224v-.0511ZM84.0223,252.3213c0,4.2407,2.3503,7.6128,7.153,7.6128,4.956,0,7.3573-3.5254,7.3573-7.8172,0-3.0656-1.3284-7.6128-7.153-7.6128s-7.4084,4.2407-7.4084,7.8172h.0511Z" fill="#fff"/><path d="M103.4375,246.5479v-1.6861h2.7079v2.3503c.3576-.6131,1.3795-2.6568,4.7005-2.6568,1.3284,0,5.3136.4598,5.3136,4.956v9.912h-2.759v-9.2478c0-.9708-.1022-1.8393-.8175-2.5035-.6642-.6642-1.635-.9708-2.5546-.9708-1.9926,0-3.8319,1.4306-3.8319,4.3429v8.3792h-2.7079v-12.8753h-.0511Z" fill="#fff"/><path d="M133.2756,238.5263v12.9775c0,2.2481.5109,3.1677.9708,3.7809,1.2773,1.7371,3.321,2.0948,4.7516,2.0948,5.6713,0,5.6713-4.4451,5.6713-5.9267v-12.8753h2.8101v12.8753c0,1.124,0,3.4743-1.7371,5.5691-2.0437,2.6057-5.2625,2.9123-6.7442,2.9123-1.9926,0-5.4669-.5109-7.4084-3.321-.6131-.9197-1.2262-2.1459-1.2262-5.2625v-12.7731h2.8612l.0511-.0511Z" fill="#fff"/><path d="M153.4572,259.4743h2.7079v-8.3792c0-2.9123,1.8393-4.3429,3.7809-4.3429.9197,0,1.8904.3066,2.5546.9708.6642.6642.7664,1.5328.7664,2.5035v9.2478h2.8101v-9.912c0-4.4961-3.9852-4.956-5.3136-4.956-3.2699,0-4.3429,2.0437-4.6494,2.6568v-2.3503h-2.759v14.5614h.1022Z" fill="#fff"/><path d="M171.3907,241.5408h3.2699v-3.0145h-3.2699v3.0145ZM171.6972,259.4743h2.7079v-14.5614h-2.7079v14.5614Z" fill="#fff"/><path d="M178.0838,244.9129h3.0656l4.6494,11.5469,4.5472-11.5469h3.0145l-6.3866,14.5614h-2.759l-6.1311-14.5614Z" fill="#fff"/><path d="M198.7763,250.7375c.0511-3.2188,2.197-4.2918,3.9852-4.2918,3.3721,0,3.6276,2.9123,3.5765,4.2918h-7.5617ZM209.1481,252.679c0-2.4013.2044-8.1748-6.3355-8.1748-.8175,0-2.5546.1022-3.9341,1.0729-2.2992,1.5839-2.9123,3.9852-2.9123,6.8464,0,4.5983,2.197,7.4595,6.7953,7.4595,2.9123,0,4.394-1.2262,5.0071-1.9415,1.0219-1.124,1.1751-2.2992,1.2262-3.0656h-2.7079c-.2555,2.0948-1.6861,3.0145-3.4232,3.0145-2.9634,0-4.2407-2.2481-4.1896-5.2625h10.5251l-.0511.0511Z" fill="#fff"/><path d="M213.7975,247.8252c0-.9708-.0511-2.0437-.1533-2.9634h2.759l.0511,2.8101c.5109-2.0437,2.2481-2.7079,3.4743-2.8612.8175-.1022,1.4306-.1022,1.8904-.0511v2.6568s-.3576-.1022-.5109-.1022h-.8175c-3.2188,0-3.9852,1.9415-3.9852,4.394v7.7661h-2.759v-11.598l.0511-.0511Z" fill="#fff"/><path d="M227.0816,255.1314c0,1.124.562,2.6568,3.2188,2.6568,1.124,0,1.9415-.2044,2.5546-.9197.3066-.4087.4598-.8686.4598-1.3795,0-1.4306-1.0219-1.6861-3.2188-2.1459-3.0145-.7153-5.5691-1.3284-5.5691-4.3429,0-2.7079,2.2992-4.4451,5.6713-4.4451,1.8393,0,4.394.5109,5.2625,2.2481.3576.8175.3576,1.4817.3576,2.0948h-2.8101c.1022-2.197-1.8393-2.3503-2.8101-2.3503-.4088,0-2.9634,0-2.9634,2.0948,0,1.3284,1.2773,1.6861,2.0437,1.8393,4.0363.9708,4.9049,1.1751,5.7735,1.9926.8175.7664,1.124,1.7882,1.124,2.7079,0,1.635-.9197,3.0145-1.9926,3.6787-1.2773.7664-2.8101.9708-4.3429.9708-2.9634,0-5.7224-1.2262-5.7224-4.7516h2.8612l.1021.0511Z" fill="#fff"/><path d="M240.3146,238.5774h3.2699v3.0145h-3.2699v-3.0145ZM240.6211,244.9129h2.7079v14.5614h-2.7079v-14.5614Z" fill="#fff"/><path d="M246.9566,246.8544h2.6057v9.7076c0,2.4013,1.1751,3.1167,3.6787,3.1167,1.0219,0,1.7882-.1022,2.2992-.1533v-2.1459s-.7664.1533-1.3284.1533c-1.9415,0-1.9415-1.2262-1.9415-1.9415v-8.7368h3.2699v-1.9926h-3.2699v-3.9341l-2.6568.8686v3.0145h-2.6057v1.9926l-.0511.0511Z" fill="#fff"/><path d="M265.9631,259.5254l-2.0948,5.4158h-2.8101l2.197-5.5691-6.08-14.5103h3.0655l4.5472,11.4958,4.6494-11.4958h2.9634l-6.4888,14.6636h.0511Z" fill="#fff"/><path d="M297.3339,244.1465c-.1022-.7153-.5109-3.6276-4.5472-3.6276-5.0582,0-5.9778,5.1604-5.9778,8.6347,0,3.9341,1.124,8.2259,5.9267,8.2259,1.2773,0,2.5035-.3576,3.3721-1.2262.7664-.8175.9197-1.7371,1.0219-2.2481h3.1677c-.4088,4.1385-4.2407,5.8246-7.8172,5.8246-7.4084,0-8.7879-6.4888-8.7879-10.5762,0-4.394,1.6861-10.9849,9.1967-10.9849,2.9634,0,7.153,1.1751,7.5106,5.9267h-3.1167l.0511.0511Z" fill="#fff"/><path d="M306.3773,252.1681c0-4.5472,2.8101-5.6713,4.5472-5.6713,2.5546,0,4.1896,1.9415,4.1896,5.5691,0,4.394-2.3503,5.8756-4.394,5.8756-3.0655,0-4.3429-2.759-4.3429-5.7224v-.0511ZM303.5672,252.3213c0,4.2407,2.3503,7.6128,7.153,7.6128s7.3573-3.5254,7.3573-7.8172c0-3.0656-1.2773-7.6128-7.1019-7.6128s-7.4084,4.2407-7.4084,7.8172Z" fill="#fff"/><path d="M322.9313,238.5263h2.7079v20.8969h-2.7079v-20.8969Z" fill="#fff"/><path d="M331.5659,259.4743h2.759v-20.8969h-2.759v20.8969Z" fill="#fff"/><path d="M341.8867,250.7375c.0511-3.2188,2.2481-4.2918,3.9852-4.2918,3.3721,0,3.6276,2.9123,3.6276,4.2918,0,0-7.6128,0-7.6128,0ZM352.2584,252.679c.0511-2.4013.2044-8.1748-6.3355-8.1748-.8686,0-2.6057.1022-3.9852,1.0729-2.2992,1.5839-2.9123,3.9852-2.9123,6.8464,0,4.5983,2.197,7.4595,6.7953,7.4595,2.9634,0,4.394-1.2262,5.0071-1.9415,1.0219-1.124,1.1751-2.2992,1.2262-3.0656h-2.7079c-.2555,2.0948-1.6861,3.0145-3.4232,3.0145-2.9634,0-4.2407-2.2481-4.1896-5.2625h10.474l.0511.0511Z" fill="#fff"/><path d="M362.5792,257.1751c-3.321,0-4.0363-2.9634-4.0363-5.2114,0-1.8904.4598-5.3647,3.9341-5.3647,1.2262,0,2.4014.5109,3.1167,1.2773s1.124,1.7882,1.124,3.6276c0,2.6568-.4088,3.4232-.9708,4.1896-.6642.8686-1.5839,1.4817-3.1677,1.4817ZM356.5502,260.5983c.1022,1.9926.3065,4.7005,6.1311,4.7005,1.9926,0,4.8538-.3066,6.08-2.6057.562-1.124.6642-2.5035.6642-6.0289v-9.0945l.1022-2.6568h-2.6568v1.9926c-.6131-.7664-1.6861-2.197-4.6494-2.197-3.5765,0-6.4887,2.4013-6.4887,7.3573,0,1.9415.4088,3.883,1.6861,5.3647,1.2262,1.5328,3.1167,1.7882,4.4451,1.7882.8686,0,3.6276,0,4.8027-2.4524,0,3.9341,0,6.6931-3.883,6.6931-2.6057,0-3.2699-1.2262-3.3721-2.8612h-2.9123.0511Z" fill="#fff"/><path d="M376.7829,252.679c0,3.0145,1.1751,5.2625,4.1896,5.2625,1.7882,0,3.2188-.9197,3.4232-3.0145h2.7079c-.1022.7153-.2044,1.8904-1.2773,3.0656-.6642.7153-2.0948,1.9415-5.0071,1.9415-4.5983,0-6.7442-2.8101-6.7442-7.4595,0-2.8612.562-5.2625,2.8612-6.8464,1.3795-.9708,3.1167-1.0729,3.9852-1.0729,6.5398,0,6.3866,5.7735,6.3355,8.1748h-10.474v-.0511ZM384.4468,250.7375c0-1.3795-.2555-4.2918-3.5765-4.2918-1.7882,0-3.9341,1.0729-3.9852,4.2918,0,0,7.5617,0,7.5617,0Z" fill="#fff"/><path d="M403.6576,252.1681c0-4.5472,2.8101-5.6713,4.5472-5.6713,2.5546,0,4.2407,1.9415,4.2407,5.5691,0,4.394-2.3503,5.8756-4.394,5.8756-3.1167,0-4.394-2.759-4.394-5.7224v-.0511ZM400.7964,252.3213c0,4.2407,2.3503,7.6128,7.153,7.6128,4.956,0,7.3573-3.5254,7.3573-7.8172,0-3.0656-1.3284-7.6128-7.153-7.6128s-7.4084,4.2407-7.4084,7.8172h.0511Z" fill="#fff"/><path d="M427.4667,240.5189c-.4598,0-1.0729-.0511-1.5839-.0511-2.197,0-2.197,1.124-2.197,2.0948v2.2992h3.3721v1.9926h-3.3721v12.6199h-2.7079v-12.6199h-2.8612v-1.9926h2.8612v-1.635c0-2.0437.1022-2.7079.6131-3.4743.6131-.9197,1.7882-1.5839,3.6276-1.5839.8175,0,1.6861.1022,2.2481.2044v2.197-.0511Z" fill="#fff"/><path d="M448.4147,241.3875l3.8319,10.2696h-7.9194l4.0874-10.2696ZM438.1451,259.4743h3.0144l2.2481-5.4669h9.7076l2.2992,5.4669h3.1678l-8.4814-20.948h-3.1167s-8.839,20.948-8.839,20.948Z" fill="#fff"/><path d="M462.0564,247.8252c0-.9708-.0511-2.0437-.1533-2.9634h2.759v2.8101c.562-2.0437,2.3503-2.7079,3.5254-2.8612.8175-.1022,1.4306-.1022,1.8904-.0511v2.6568s-.3065-.1022-.5109-.1022h-.7664c-3.2188,0-3.9852,1.9415-3.9852,4.394v7.7661h-2.759v-11.6491Z" fill="#fff"/><path d="M471.5597,244.8107h2.6057v-3.0145l2.7079-.8686v3.9341h3.2699v1.9926h-3.2699v8.7368c0,.7153,0,1.9415,1.9415,1.9415.562,0,1.0729-.1022,1.3284-.1533v2.1459c-.4598.1022-1.2773.1533-2.2481.1533-2.5035,0-3.6787-.7153-3.6787-3.1167v-9.7076h-2.6057v-1.9926l-.0511-.0511Z" fill="#fff"/><path d="M206.0315,109.1088v100.6524h100.6524v-100.6524h-100.6524ZM301.268,204.3454h-89.8719v-89.8208h89.8719v89.8208Z" fill="#fff"/><path d="M256.3576,137.0053c-25.6485,0-46.4943,10.0652-46.4943,22.4296s20.7947,22.4296,46.4943,22.4296,46.4943-10.0652,46.4943-22.4296-20.7947-22.4296-46.4943-22.4297ZM256.3576,176.4999c-22.2253,0-40.261-7.6128-40.261-17.0138s18.0357-17.0649,40.261-17.0649,40.261,7.6128,40.261,17.0649-18.0357,17.0138-40.261,17.0138Z" fill="#fff"/><path d="M256.3576,137.0053c-12.8242,0-23.2471,10.0652-23.2471,22.4296s10.3718,22.4296,23.2471,22.4296,23.196-10.0652,23.196-22.4296-10.3718-22.4296-23.196-22.4297ZM256.3576,176.4999c-9.401,0-17.0138-7.6639-17.0138-17.0649s7.6128-17.0649,17.0138-17.0649,17.0649,7.6639,17.0649,17.0649-7.6639,17.0649-17.0649,17.0649Z" fill="#fff"/><path d="M84.9931,109.0066h31.2687l37.8085,79.3468v-79.3468h20.0794v100.8568h-29.7359l-39.0347-83.6897v83.7408h-20.3859s0-100.9079,0-100.9079Z" fill="#fff"/><path d="M357.4188,109.2621v61.3622c0,11.036.8686,24.831,21.9187,24.831,3.4743,0,13.9483-.1533,19.5174-8.7879,2.0948-3.0656,3.2188-6.9997,3.2188-17.1671v-60.2382h21.1012v62.9461c0,29.9914-23.8602,39.5968-44.2462,39.5968-10.0652,0-28.4586-2.2481-37.9618-17.4226-4.9049-7.6639-5.1603-15.4811-5.1603-24.831v-60.2893h21.6122Z" fill="#fff"/><path d="M116.2107,348.3243l14.919-42.9689,13.9483,42.9689h-28.8673ZM117.6413,288.1883l-35.2028,98.2h20.6414l7.5106-21.7655h39.9033l7.2551,21.7655h21.7654l-34.0277-98.2h-27.8966.0511Z" fill="#fff"/><path d="M240.3657,333.2009c0-3.321-.562-13.5395-.9708-17.5758h19.4152l.4088,13.4884c2.6568-5.9778,7.2551-14.5103,23.9624-13.6417v18.5466c-20.8969-1.9415-22.1742,8.7879-22.1742,17.5758v34.743h-20.6414v-53.1874.0511Z" fill="#fff"/><path d="M398.906,385.4175c-6.6931,1.8393-12.722,2.2481-16.0431,2.2481-20.7947,0-20.7947-13.1308-20.7947-19.0065v-38.626h-13.4884v-13.6417h13.4884v-13.795l20.5392-7.5106v21.3567h16.7584v13.6417h-16.7584v31.8307c.1533,6.4377.1533,10.474,9.35,10.474,3.0655,0,4.4961-.1022,6.9997-.4088v13.5395l-.0511-.1022Z" fill="#fff"/><rect x="26.8497" y="226.3663" width="459.0669" height="3.3721" fill="#fff"/><rect x="26.0833" y="399.6213" width="459.629" height="3.3721" fill="#fff"/></g></svg>